<svg width="18" height="18" viewBox="0 0 18 18" fill="none" xmlns="http://www.w3.org/2000/svg">
<path d="M11.3333 10.6667C12.4384 10.6667 13.4982 11.1057 14.2796 11.8871C15.061 12.6685 15.5 13.7283 15.5 14.8334V15.6667C15.5 16.1088 15.3244 16.5327 15.0118 16.8453C14.6993 17.1578 14.2754 17.3334 13.8333 17.3334H2.16667C1.72464 17.3334 1.30072 17.1578 0.988155 16.8453C0.675595 16.5327 0.5 16.1088 0.5 15.6667V14.8334C0.5 13.7283 0.938987 12.6685 1.72039 11.8871C2.50179 11.1057 3.5616 10.6667 4.66667 10.6667H11.3333ZM14.6667 5.66675C14.8877 5.66675 15.0996 5.75455 15.2559 5.91083C15.4122 6.06711 15.5 6.27907 15.5 6.50008V7.33341H16.3333C16.5543 7.33341 16.7663 7.42121 16.9226 7.57749C17.0789 7.73377 17.1667 7.94573 17.1667 8.16675C17.1667 8.38776 17.0789 8.59972 16.9226 8.756C16.7663 8.91228 16.5543 9.00008 16.3333 9.00008H15.5V9.83341C15.5 10.0544 15.4122 10.2664 15.2559 10.4227C15.0996 10.5789 14.8877 10.6667 14.6667 10.6667C14.4457 10.6667 14.2337 10.5789 14.0774 10.4227C13.9211 10.2664 13.8333 10.0544 13.8333 9.83341V9.00008H13C12.779 9.00008 12.567 8.91228 12.4107 8.756C12.2545 8.59972 12.1667 8.38776 12.1667 8.16675C12.1667 7.94573 12.2545 7.73377 12.4107 7.57749C12.567 7.42121 12.779 7.33341 13 7.33341H13.8333V6.50008C13.8333 6.27907 13.9211 6.06711 14.0774 5.91083C14.2337 5.75455 14.4457 5.66675 14.6667 5.66675ZM8 0.666748C9.10507 0.666748 10.1649 1.10573 10.9463 1.88714C11.7277 2.66854 12.1667 3.72835 12.1667 4.83341C12.1667 5.93848 11.7277 6.99829 10.9463 7.77969C10.1649 8.56109 9.10507 9.00008 8 9.00008C6.89493 9.00008 5.83512 8.56109 5.05372 7.77969C4.27232 6.99829 3.83333 5.93848 3.83333 4.83341C3.83333 3.72835 4.27232 2.66854 5.05372 1.88714C5.83512 1.10573 6.89493 0.666748 8 0.666748Z" fill="#494848"/>
</svg>
