<svg width="18" height="18" viewBox="0 0 18 18" fill="none" xmlns="http://www.w3.org/2000/svg">
<path d="M17.3332 9.00008C17.3332 8.77907 17.2454 8.56711 17.0891 8.41083C16.9328 8.25455 16.7208 8.16675 16.4998 8.16675C16.2788 8.16675 16.0669 8.25455 15.9106 8.41083C15.7543 8.56711 15.6665 8.77907 15.6665 9.00008H17.3332ZM8.99984 2.33341C9.22085 2.33341 9.43281 2.24562 9.58909 2.08934C9.74537 1.93306 9.83317 1.7211 9.83317 1.50008C9.83317 1.27907 9.74537 1.06711 9.58909 0.910826C9.43281 0.754545 9.22085 0.666748 8.99984 0.666748V2.33341ZM15.2498 15.6667H2.74984V17.3334H15.2498V15.6667ZM2.33317 15.2501V2.75008H0.666504V15.2501H2.33317ZM15.6665 9.00008V15.2501H17.3332V9.00008H15.6665ZM2.74984 2.33341H8.99984V0.666748H2.74984V2.33341ZM2.74984 15.6667C2.63933 15.6667 2.53335 15.6228 2.45521 15.5447C2.37707 15.4666 2.33317 15.3606 2.33317 15.2501H0.666504C0.666504 15.8026 0.885997 16.3325 1.2767 16.7232C1.6674 17.1139 2.1973 17.3334 2.74984 17.3334V15.6667ZM15.2498 17.3334C15.8024 17.3334 16.3323 17.1139 16.723 16.7232C17.1137 16.3325 17.3332 15.8026 17.3332 15.2501H15.6665C15.6665 15.3606 15.6226 15.4666 15.5445 15.5447C15.4663 15.6228 15.3603 15.6667 15.2498 15.6667V17.3334ZM2.33317 2.75008C2.33317 2.63957 2.37707 2.53359 2.45521 2.45545C2.53335 2.37731 2.63933 2.33341 2.74984 2.33341V0.666748C2.1973 0.666748 1.6674 0.886241 1.2767 1.27694C0.885997 1.66764 0.666504 2.19755 0.666504 2.75008H2.33317Z" fill="#494848"/>
<path d="M1.5 13.5833L5.95542 9.49917C6.10559 9.36153 6.30097 9.28367 6.50465 9.28029C6.70832 9.27691 6.90618 9.34825 7.06083 9.48083L12.3333 14M10.6667 11.9167L12.6554 9.92792C12.7973 9.78597 12.9856 9.69998 13.1857 9.68575C13.3859 9.67151 13.5845 9.72998 13.745 9.85042L16.5 11.9167M14.4167 6.5V1.5M14.4167 1.5L12.3333 3.58333M14.4167 1.5L16.5 3.58333" stroke="#494848" stroke-width="1.66667" stroke-linecap="round" stroke-linejoin="round"/>
</svg>
