<svg width="20" height="19" viewBox="0 0 20 19" fill="none" xmlns="http://www.w3.org/2000/svg">
<path d="M18.3333 17.4167L16.6666 15.8333M9.58329 16.625C10.6229 16.625 11.6524 16.4305 12.6129 16.0525C13.5734 15.6746 14.4461 15.1206 15.1812 14.4222C15.9164 13.7238 16.4995 12.8947 16.8973 11.9823C17.2952 11.0698 17.5 10.0918 17.5 9.10418C17.5 8.11653 17.2952 7.13855 16.8973 6.22608C16.4995 5.31361 15.9164 4.48452 15.1812 3.78614C14.4461 3.08777 13.5734 2.53379 12.6129 2.15583C11.6524 1.77788 10.6229 1.58334 9.58329 1.58334C7.48366 1.58334 5.47003 2.37571 3.98536 3.78614C2.5007 5.19657 1.66663 7.10953 1.66663 9.10418C1.66663 11.0988 2.5007 13.0118 3.98536 14.4222C5.47003 15.8326 7.48366 16.625 9.58329 16.625V16.625Z" stroke="white" stroke-width="1.5" stroke-linecap="round" stroke-linejoin="round"/>
</svg>
